<?xml version="1.0" standalone="no"?>
<!DOCTYPE svg PUBLIC "-//W3C//DTD SVG 20010904//EN"
 "http://www.w3.org/TR/2001/REC-SVG-20010904/DTD/svg10.dtd">
<svg version="1.0" xmlns="http://www.w3.org/2000/svg"
 width="700.000000pt" height="700.000000pt" viewBox="0 0 700.000000 700.000000"
 preserveAspectRatio="xMidYMid meet">
<metadata>
Created by potrace 1.14, written by Peter Selinger 2001-2017
</metadata>
<g transform="translate(0.000000,700.000000) scale(0.100000,-0.100000)"
fill="#000000" stroke="none">
<path d="M0 3500 l0 -3500 3500 0 3500 0 0 3500 0 3500 -3500 0 -3500 0 0
-3500z m2447 1525 c297 -48 559 -199 723 -417 184 -244 248 -544 184 -858 -55
-264 -231 -505 -477 -653 l-55 -34 338 -559 337 -559 -466 -3 c-411 -2 -467 0
-477 13 -7 9 -133 229 -280 490 l-268 475 -143 0 -143 0 0 -490 0 -490 -410 0
-410 0 0 1550 0 1550 728 0 c596 0 744 -3 819 -15z m3023 -17 c324 -88 535
-238 694 -492 121 -193 175 -442 147 -683 -16 -132 -42 -226 -96 -340 -56
-119 -91 -169 -193 -275 -137 -142 -294 -237 -487 -293 -158 -46 -254 -55
-577 -55 l-298 0 0 -465 0 -465 -410 0 -410 0 0 1550 0 1551 768 -3 767 -4 95
-26z"/>
<path d="M1720 3981 l0 -311 193 0 c318 0 421 22 510 108 66 63 82 104 82 207
0 80 -3 95 -27 137 -33 55 -85 99 -165 136 -58 27 -58 27 -325 30 l-268 3 0
-310z"/>
<path d="M4660 3955 l0 -337 273 4 c256 4 275 5 330 27 82 32 168 117 192 191
27 78 24 180 -5 248 -29 67 -111 143 -188 174 -54 21 -72 23 -329 26 l-273 3
0 -336z"/>
</g>
</svg>
